<svg xmlns="http://www.w3.org/2000/svg" width="96" height="128" viewBox="0 0 96 128" role="img" aria-label="book">
  <defs>
    <linearGradient id="cover" x1="18" y1="12" x2="78" y2="118" gradientUnits="userSpaceOnUse">
      <stop offset="0" stop-color="#60a5fa"/>
      <stop offset="0.56" stop-color="#2563eb"/>
      <stop offset="1" stop-color="#1e40af"/>
    </linearGradient>
    <linearGradient id="pages" x1="26" y1="20" x2="78" y2="116" gradientUnits="userSpaceOnUse">
      <stop offset="0" stop-color="#fff7ed"/>
      <stop offset="1" stop-color="#fed7aa"/>
    </linearGradient>
  </defs>
  <path d="M18 15c0-5 4-9 9-9h46c4 0 7 3 7 7v98c0 5-4 9-9 9H27c-5 0-9-4-9-9V15Z" fill="#1e3a8a" opacity=".22"/>
  <path d="M14 18c0-6 5-11 11-11h44c7 0 13 6 13 13v88c0 7-6 13-13 13H25c-6 0-11-5-11-11V18Z" fill="url(#cover)"/>
  <path d="M26 18h42c3 0 5 2 5 5v83c0 3-2 5-5 5H26V18Z" fill="url(#pages)" opacity=".96"/>
  <path d="M26 18v93" stroke="#1d4ed8" stroke-width="6" stroke-linecap="round"/>
  <path d="M38 36h24M38 50h24M38 64h17" stroke="#f97316" stroke-width="5" stroke-linecap="round" opacity=".72"/>
  <path d="M69 7c7 0 13 6 13 13v88c0 7-6 13-13 13H25c-5 0-9-3-10-8h50c7 0 13-6 13-13V13c-2-4-5-6-9-6Z" fill="#172554" opacity=".18"/>
</svg>
